<?xml version="1.0" encoding="iso-8859-1"?>
<!-- Generator: Adobe Illustrator 16.0.0, SVG Export Plug-In . SVG Version: 6.00 Build 0)  -->
<!DOCTYPE svg PUBLIC "-//W3C//DTD SVG 1.1//EN" "http://www.w3.org/Graphics/SVG/1.1/DTD/svg11.dtd">
<svg version="1.1" id="Capa_1" xmlns="http://www.w3.org/2000/svg" xmlns:xlink="http://www.w3.org/1999/xlink" x="0px" y="0px"
	 width="39.699px" height="39.699px" viewBox="0 0 39.699 39.699" style="enable-background:new 0 0 39.699 39.699;"
	 xml:space="preserve">
<g>
	<path d="M6.871,20.631c0.051,0.118,0.061,0.252,0.034,0.404c-0.034,0.18-0.113,0.32-0.236,0.432
		c-0.125,0.109-0.262,0.17-0.412,0.184c-0.151,0.014-0.336,0-0.554-0.039l-0.374-0.072c-0.125-0.021-0.199-0.045-0.227-0.062
		c-0.025-0.018-0.041-0.045-0.047-0.082c-0.003-0.025,0.009-0.123,0.034-0.277l0.207-1.109l0.665,0.123
		c0.292,0.055,0.502,0.12,0.634,0.2C6.727,20.411,6.819,20.512,6.871,20.631z M6.906,18.292c-0.118-0.062-0.342-0.127-0.672-0.188
		l-0.562-0.105l-0.234,1.25l0.563,0.106c0.293,0.054,0.517,0.068,0.667,0.045c0.15-0.02,0.268-0.075,0.359-0.161
		c0.088-0.084,0.146-0.192,0.17-0.324c0.026-0.135,0.014-0.256-0.037-0.363C7.112,18.445,7.028,18.361,6.906,18.292z M11.89,19.85
		c0,3.283-2.662,5.945-5.946,5.945C2.661,25.795,0,23.133,0,19.85c0-3.284,2.661-5.945,5.944-5.945
		C9.228,13.904,11.89,16.565,11.89,19.85z M8.391,18.279c-0.102-0.22-0.271-0.404-0.504-0.559c-0.09-0.062-0.203-0.112-0.327-0.161
		l0.17-0.903l-0.868-0.162l-0.158,0.845l-0.559-0.105l0.159-0.843l-0.869-0.164l-0.159,0.847L3.95,16.822l-0.132,0.709l0.203,0.041
		c0.135,0.021,0.225,0.053,0.267,0.088c0.044,0.031,0.07,0.07,0.082,0.116s0.004,0.146-0.024,0.296l-0.535,2.861
		c-0.027,0.148-0.055,0.242-0.083,0.281s-0.067,0.066-0.12,0.08c-0.053,0.018-0.145,0.01-0.279-0.016l-0.204-0.037l-0.132,0.709
		l1.324,0.248l-0.156,0.846l0.868,0.162l0.157-0.844l0.494,0.092c0.022,0.004,0.042,0.004,0.064,0.01l-0.157,0.846l0.867,0.162
		l0.173-0.916c0.149-0.002,0.284-0.014,0.403-0.035c0.321-0.062,0.587-0.195,0.794-0.396c0.206-0.195,0.336-0.43,0.387-0.703
		c0.043-0.229,0.027-0.445-0.046-0.648c-0.073-0.207-0.193-0.377-0.357-0.516c-0.113-0.098-0.285-0.199-0.513-0.305
		c0.237-0.035,0.436-0.098,0.594-0.188c0.158-0.09,0.289-0.207,0.389-0.344c0.101-0.142,0.168-0.296,0.199-0.464
		C8.519,18.728,8.493,18.499,8.391,18.279z M13.653,15.176l-0.896,4.479c-0.054,0.262-0.099,0.533-0.099,0.805
		c0,0.787,0.525,1.24,1.574,1.24c1.99,0,2.931-1.646,2.931-3.084c0-0.789-0.415-1.541-1.339-1.541c-0.542,0-1.039,0.236-1.365,0.625
		H14.44l0.524-2.521L13.653,15.176L13.653,15.176z M14.132,19.372c0.154-0.771,0.615-1.248,1.086-1.248
		c0.397,0,0.577,0.334,0.577,0.761c0,0.776-0.541,1.825-1.292,1.825c-0.3,0-0.489-0.172-0.498-0.487
		c-0.009-0.189,0.027-0.342,0.046-0.486L14.132,19.372z M18.821,21.598l0.841-4.424H18.36l-0.842,4.424H18.821z M19.173,16.622
		c0.417,0,0.769-0.271,0.769-0.731c0-0.39-0.271-0.642-0.649-0.642c-0.399,0-0.743,0.298-0.752,0.74
		C18.54,16.378,18.812,16.622,19.173,16.622z M21.092,16.244l-0.182,0.932h-0.568l-0.181,0.986h0.562l-0.346,1.766
		c-0.062,0.334-0.09,0.576-0.09,0.82c0,0.555,0.372,0.951,1.148,0.951c0.279,0,0.604-0.037,0.771-0.102l0.153-1.021
		c-0.118,0.02-0.245,0.02-0.36,0.02c-0.282,0-0.373-0.152-0.373-0.371c0-0.151,0.037-0.379,0.072-0.562l0.301-1.5h0.938l0.188-0.986
		h-0.938l0.234-1.238L21.092,16.244z M26.278,20.469c-0.226,0.09-0.496,0.18-0.878,0.18c-0.487,0-0.866-0.307-0.866-0.912
		c0-0.834,0.567-1.619,1.502-1.619c0.263,0,0.44,0.045,0.597,0.107l0.315-0.994c-0.188-0.082-0.517-0.156-0.896-0.156
		c-1.686,0-2.887,1.232-2.887,2.809c0,1.146,0.77,1.809,1.861,1.809c0.525,0,0.979-0.092,1.258-0.225L26.278,20.469z M29.662,17.074
		c-1.574,0-2.643,1.258-2.643,2.797c0,1.098,0.75,1.828,1.873,1.828c1.539,0,2.641-1.188,2.641-2.805
		C31.536,17.891,30.848,17.074,29.662,17.074z M29.491,18.061c0.524,0,0.696,0.436,0.696,0.842c0,0.76-0.396,1.801-1.11,1.801
		c-0.453,0-0.707-0.344-0.707-0.857C28.361,19.156,28.741,18.061,29.491,18.061z M33.23,21.598l0.843-4.424h-1.306l-0.84,4.424
		H33.23z M33.582,16.622c0.416,0,0.77-0.271,0.77-0.731c0-0.39-0.271-0.642-0.651-0.642c-0.396,0-0.74,0.298-0.75,0.74
		C32.95,16.378,33.221,16.622,33.582,16.622z M35.627,21.598l0.371-1.963c0.182-0.976,0.682-1.511,1.104-1.511
		c0.326,0,0.436,0.218,0.436,0.524c0,0.162-0.02,0.343-0.045,0.498l-0.461,2.449h1.303l0.488-2.567
		c0.035-0.218,0.072-0.554,0.072-0.75c0-0.763-0.408-1.205-1.133-1.205c-0.588,0-1.14,0.254-1.556,0.832h-0.019l0.091-0.731H35.12
		c-0.056,0.393-0.127,0.879-0.235,1.44l-0.562,2.981L35.627,21.598L35.627,21.598z M12.658,24.48
		c0.119,0.014,0.295,0.029,0.543,0.029c0.414,0,0.753-0.088,0.976-0.271c0.204-0.174,0.352-0.453,0.352-0.855
		c0-0.373-0.138-0.637-0.357-0.799c-0.204-0.152-0.465-0.227-0.866-0.227c-0.241,0-0.471,0.016-0.646,0.043v2.08H12.658z
		 M13.137,22.744c0.041-0.01,0.11-0.02,0.217-0.02c0.411,0,0.669,0.232,0.665,0.672c0,0.504-0.282,0.744-0.715,0.74
		c-0.061,0-0.126,0-0.167-0.01V22.744z M14.843,22.373v2.115h0.48v-2.115H14.843z M17.505,23.277h-0.788v0.373h0.327v0.443
		c-0.038,0.018-0.126,0.031-0.236,0.031c-0.392,0-0.665-0.26-0.665-0.693c0-0.459,0.301-0.686,0.7-0.686
		c0.231,0,0.376,0.041,0.492,0.092l0.101-0.383c-0.104-0.051-0.313-0.105-0.587-0.105c-0.693,0-1.205,0.402-1.208,1.105
		c-0.003,0.309,0.104,0.586,0.298,0.768c0.194,0.189,0.474,0.285,0.86,0.285c0.279,0,0.558-0.068,0.706-0.119V23.277L17.505,23.277z
		 M17.88,22.373v2.115h0.479v-2.115H17.88z M19.182,24.488h0.48v-1.713h0.578v-0.402h-1.626v0.402h0.567L19.182,24.488
		L19.182,24.488z M21.368,23.945l0.164,0.543h0.517l-0.656-2.115h-0.629l-0.646,2.115h0.497l0.148-0.543H21.368z M20.83,23.588
		l0.125-0.449c0.035-0.123,0.066-0.281,0.1-0.408h0.006c0.031,0.127,0.068,0.283,0.105,0.408l0.133,0.449H20.83z M22.329,24.488
		h1.321v-0.402h-0.842v-1.713h-0.479V24.488z M26.051,24.055c-0.096,0.039-0.256,0.07-0.4,0.07c-0.426,0-0.676-0.27-0.676-0.691
		c0-0.471,0.295-0.699,0.674-0.699c0.17,0,0.306,0.037,0.402,0.078l0.098-0.379c-0.086-0.045-0.272-0.096-0.521-0.096
		c-0.643,0-1.154,0.402-1.154,1.123c0,0.604,0.377,1.059,1.107,1.059c0.258,0,0.453-0.047,0.543-0.092L26.051,24.055z
		 M26.434,22.373v1.18c0,0.676,0.314,0.971,0.849,0.971c0.553,0,0.883-0.311,0.883-0.965v-1.186h-0.479v1.219
		c0,0.373-0.137,0.549-0.389,0.549c-0.244,0-0.383-0.186-0.383-0.549v-1.219H26.434L26.434,22.373z M28.579,24.488h0.476v-0.832
		h0.145c0.195,0.004,0.285,0.074,0.344,0.34c0.062,0.262,0.111,0.434,0.146,0.492h0.488c-0.041-0.082-0.105-0.355-0.173-0.596
		c-0.053-0.195-0.135-0.336-0.282-0.396v-0.01c0.184-0.062,0.375-0.25,0.375-0.52c0-0.195-0.069-0.344-0.195-0.443
		c-0.15-0.119-0.369-0.166-0.684-0.166c-0.257,0-0.484,0.02-0.64,0.043V24.488z M29.053,22.729c0.033-0.006,0.103-0.018,0.217-0.018
		c0.222,0.004,0.353,0.102,0.353,0.297c0,0.184-0.142,0.305-0.379,0.305h-0.188L29.053,22.729L29.053,22.729z M30.441,24.488h0.474
		v-0.832h0.146c0.195,0.004,0.287,0.074,0.343,0.34c0.063,0.262,0.112,0.434,0.147,0.492h0.489
		c-0.041-0.082-0.106-0.355-0.174-0.596c-0.054-0.195-0.136-0.336-0.281-0.396v-0.01c0.183-0.062,0.373-0.25,0.373-0.52
		c0-0.195-0.067-0.344-0.194-0.443c-0.148-0.119-0.369-0.166-0.685-0.166c-0.254,0-0.481,0.02-0.638,0.043V24.488z M30.914,22.729
		c0.035-0.006,0.102-0.018,0.217-0.018c0.221,0.004,0.352,0.102,0.352,0.297c0,0.184-0.141,0.305-0.379,0.305h-0.188L30.914,22.729
		L30.914,22.729z M33.562,23.205h-0.778v-0.439h0.825v-0.393h-1.307v2.115h1.351v-0.395h-0.869v-0.502h0.778V23.205z M34.418,24.488
		v-0.637c0-0.346-0.006-0.645-0.02-0.924l0.012-0.002c0.104,0.248,0.24,0.521,0.365,0.748l0.451,0.814h0.504v-2.115h-0.439v0.619
		c0,0.314,0.01,0.602,0.041,0.881h-0.01c-0.096-0.238-0.221-0.502-0.346-0.727l-0.439-0.773h-0.559v2.115H34.418L34.418,24.488z
		 M37.627,24.055c-0.094,0.039-0.254,0.07-0.396,0.07c-0.428,0-0.678-0.27-0.678-0.691c0-0.471,0.295-0.699,0.674-0.699
		c0.17,0,0.306,0.037,0.4,0.078l0.1-0.379c-0.086-0.045-0.272-0.096-0.521-0.096c-0.643,0-1.154,0.402-1.154,1.123
		c0,0.604,0.377,1.059,1.107,1.059c0.258,0,0.455-0.047,0.543-0.092L37.627,24.055z M39.004,24.488v-0.881l0.695-1.234h-0.535
		l-0.214,0.508c-0.062,0.15-0.111,0.273-0.16,0.404h-0.006c-0.054-0.139-0.099-0.25-0.162-0.404l-0.217-0.508h-0.548l0.668,1.248
		v0.867H39.004L39.004,24.488z"/>
</g>
<g>
</g>
<g>
</g>
<g>
</g>
<g>
</g>
<g>
</g>
<g>
</g>
<g>
</g>
<g>
</g>
<g>
</g>
<g>
</g>
<g>
</g>
<g>
</g>
<g>
</g>
<g>
</g>
<g>
</g>
</svg>
